<svg xmlns="http://www.w3.org/2000/svg" width="1240" height="1240"><path d="M606.044 96.577c-5.792 2.513-9.95 6.305-12.559 11.452-1.367 2.697-2.485 5.557-2.485 6.355 0 .797-3.635 3.997-8.079 7.11-4.443 3.114-11.476 8.889-15.629 12.834l-7.55 7.172-6.325.091c-8.578.124-14.477 3.245-20.726 10.967-5.239 6.473-13.578 22.235-16.252 30.72-1.588 5.037-1.964 5.439-6.632 7.097-11.02 3.914-16.683 12.846-17.36 27.383l-.398 8.525-13.483 15.967c-8.451 10.007-14.135 17.672-15.228 20.536-1.726 4.519-1.699 4.896 2.521 34.621 2.589 18.232 3.881 30.18 3.285 30.378-.539.18-6.53 3.501-13.313 7.38-43.713 25.002-80.427 59.225-108.71 101.335-29.281 43.596-46.404 89.166-53.731 143-2.176 15.985-2.504 60.579-.559 76 4.989 39.556 15.982 77.415 31.278 107.716l2.899 5.744-2.679.672c-1.474.37-3.838.572-5.254.449-1.416-.124-25.038-.433-52.492-.689-33.659-.313-51.614-.112-55.126.617-10.917 2.266-19.072 10.441-21.575 21.628-1.019 4.555-.948 6.306.467 11.393l1.671 6.011-6.01 44.885c-3.306 24.687-6.01 47.417-6.01 50.512 0 9.201 3.731 15.831 11 19.545 1.925.983 55.652 18.99 119.394 40.014 106.871 35.251 116.314 38.192 121.285 37.78 10.664-.885 18.654-9.778 18.654-20.761 0-8.359-2.557-11.939-19-26.601-10.142-9.044-13.937-12.99-12.658-13.165 1.004-.137 22.568-2.724 47.921-5.749l46.095-5.499 5.773 1.986c16.846 5.795 44.487 11.666 66.536 14.131 14.805 1.655 53.195 1.655 68 0 21.904-2.449 49.692-8.336 66.275-14.042l5.512-1.896 44.357 5.322 47.158 5.66c2.601.313 1.762 1.265-11.75 13.337-16.367 14.623-18.845 18.202-18.765 27.108.096 10.634 8.12 19.305 18.676 20.18 4.908.407 14.894-2.706 122.69-38.247 87.957-29.001 118.224-39.375 120.847-41.424 4.681-3.655 8-10.358 8-16.156 0-2.538-1.576-16.505-3.502-31.038a11993.367 11993.367 0 01-7.055-54.423c-1.954-15.4-4.218-30.074-5.031-32.609-1.957-6.098-7.44-12.34-13.774-15.681l-5.138-2.71-32 .056c-43.278.075-40.967.075-59 .006-11.298-.043-16.661.316-18.25 1.223-1.237.707-2.25 1.033-2.25.725 0-.308 1.521-3.586 3.379-7.285C942.958 705.356 953.634 632.55 942.446 566c-14.546-86.526-63.215-164.302-134.052-214.222l-7.894-5.564.094-11.857c.063-7.95 1.362-20.763 3.942-38.886 3.492-24.534 3.726-27.464 2.531-31.73-1.023-3.657-4.367-8.307-15.055-20.941l-13.739-16.241-.613-9.333c-.378-5.752-1.335-10.964-2.495-13.586-2.274-5.141-9.094-11.289-14.987-13.511-4.199-1.582-4.432-1.909-8.157-11.415-7.985-20.375-18.078-33.221-28.474-36.243-3.548-1.032-7.042-1.413-9.212-1.006-3.323.623-3.905.263-11.727-7.246-4.527-4.346-11.571-10.248-15.653-13.115-6.281-4.41-7.613-5.858-8.656-9.408-2.754-9.374-12.806-16.711-22.799-16.642-6.355.043-11.273 1.806-16.428 5.889l-4.078 3.23-3.247-2.741c-7.319-6.179-18-8.196-25.703-4.855m58.138 41.923c.626 1.375 1.527 2.5 2.002 2.5.474 0 .125-1.125-.776-2.5s-1.802-2.5-2.002-2.5c-.2 0 .149 1.125.776 2.5m2.421 4.333c-.283.459.12.834.897.834s1.18-.375.897-.834c-.283-.458-.687-.833-.897-.833-.21 0-.614.375-.897.833m11.476 17.75c.048 1.165.285 1.402.604.605.289-.722.253-1.585-.079-1.917-.332-.332-.568.258-.525 1.312M672.158 173c0 1.375.227 1.938.504 1.25.278-.687.278-1.812 0-2.5-.277-.687-.504-.125-.504 1.25m-127.411 6.678c-.807 2.022-1.211 4.61-.899 5.75.455 1.658.692 1.373 1.187-1.428.34-1.925.952-4.512 1.359-5.75 1.204-3.656-.054-2.566-1.647 1.428m127.411.322c0 1.375.227 1.938.504 1.25.278-.687.278-1.812 0-2.5-.277-.687-.504-.125-.504 1.25m-131.546 9.624c-.886 2.603-1.579 5.215-1.539 5.804.04.59.939-1.367 1.997-4.348 1.058-2.981 1.751-5.593 1.539-5.804-.211-.211-1.11 1.745-1.997 4.348m128.702 8.126c-.342.963-.848 2.157-1.123 2.655-.275.497-.035.617.534.265 1.042-.644 2.464-4.67 1.65-4.67-.241 0-.718.787-1.061 1.75M567.54 248.168c-.692 8.858.088 21.612 1.458 23.829 1.808 2.926 11.405 4.187 35.002 4.601l23.5.412-4.5-2.057c-2.475-1.131-10.575-4.734-18-8.007-15.951-7.032-19.316-8.972-21.6-12.458-1.603-2.446-1.604-2.713-.022-4.298.927-.929 3.134-2.18 4.904-2.779 1.77-.598 3.358-1.807 3.529-2.686.583-2.996-3.834-4.545-13.952-4.893l-9.642-.332-.677 8.668m121.756 74.37c-1.343.993-1.51 1.618-.661 2.479 1.578 1.602 5.779.825 6.153-1.138.411-2.155-3.197-3.035-5.492-1.341m-119.272 2.712c-2.963 1.788-5.557 3.778-5.763 4.423-.483 1.506 14.971 8.995 20.239 9.807l4 .617-3.196-2.001c-4.48-2.805-6.6-6.488-6.71-11.658-.116-5.478-1.208-5.629-8.57-1.188M582 323.893c0 2.445 2.568 3.409 5.253 1.972 2.041-1.093 2.049-1.171.236-2.497-2.721-1.989-5.489-1.725-5.489.525m116 1.984c0 4.82-3.386 10.043-8.02 12.371-4.58 2.302-1.698 2.237 5.113-.114 5.52-1.905 14.907-7.106 14.907-8.258 0-.992-6.567-5.761-9.432-6.85-2.48-.943-2.568-.846-2.568 2.851m-80.003-.127c1.308 1.788 2.535 3.25 2.726 3.25.76 0-1.72-3.751-3.36-5.082-1.08-.878-.838-.179.634 1.832m48.526 3.227c-2.696 2.737-4.695 5.184-4.442 5.437 1.808 1.808 11.106 4.623 16.693 5.054 5.31.41 6.072.312 3.621-.465-1.707-.542-4.289-2.169-5.737-3.617-2.621-2.622-5.054-8.936-4.061-10.542 1.53-2.477-1.787-.22-6.074 4.133M604 327.563c0 3.082-3.206 8.274-6.5 10.527l-3 2.052 3.5-.635c4.405-.799 14-4.513 14-5.42 0-.375-1.8-2.439-4-4.587-3.323-3.244-4-3.573-4-1.937m72.924.028c-.89 1.073-.786 1.525.463 2.004 1.888.724 4.613-.13 4.613-1.447 0-1.582-3.873-2.006-5.076-.557m-81.39.354c-.965 1.561.305 3.055 2.598 3.055 1.375 0 1.908-.552 1.68-1.739-.384-1.992-3.305-2.891-4.278-1.316m21.752 23.754c-1.218 1.266-1.85 2.301-1.405 2.301.975 0 4.613-3.888 4.03-4.307-.226-.162-1.407.741-2.625 2.006M473.5 360.322c-25.194 14.351-42.842 27.874-64.082 49.104-18.07 18.06-25.773 27.333-38.074 45.827-23.857 35.871-39.804 77.343-46.429 120.743-2.669 17.485-3.649 51.866-1.986 69.65 4.516 48.266 20.011 94.327 44.779 133.104l3.353 5.25h29.125c27.628 0 29.049-.09 27.66-1.75-.806-.962-3.362-4.076-5.68-6.919-2.319-2.842-6.567-6.496-9.441-8.119-9.266-5.232-16.122-11.665-22.635-21.238-7.973-11.721-9.141-15.032-10.044-28.474l-.739-11-.153 8.54c-.194 10.756 1.846 18.847 6.545 25.96 1.998 3.025 4.765 7.217 6.148 9.315 3.621 5.493 12.306 13.113 19.58 17.181 4.315 2.414 7.765 5.397 10.997 9.51l4.709 5.994h-37.192l-6.66-10.25c-22.342-34.385-37.109-74.539-42.937-116.75-2.136-15.473-2.405-54.633-.477-69.5 8.297-63.998 36.513-122.018 80.419-165.368l9.488-9.368 4.257 7.368 7.515 13.003 3.256 5.635-4.997 4.865c-21.417 20.852-44.087 55.796-55.738 85.915-19.788 51.152-22.369 109.653-7.11 161.175 1.593 5.376 3.082 11.35 3.309 13.275l.414 3.5.16-3.282c.088-1.805-1.139-7.655-2.727-13-2.934-9.877-6.007-24.265-8.27-38.718-1.691-10.796-1.717-51.412-.042-63 5.894-40.752 18.362-74.288 39.596-106.5 21.031-31.905 48.421-58.074 81.347-77.723 5.091-3.038 9.256-5.63 9.256-5.759 0-.13-1.561-3.615-3.469-7.743-3.594-7.781-7.955-22.951-9.119-31.728-.368-2.776-1.174-5.034-1.791-5.019-.616.015-6.071 2.848-12.121 6.294m133.313-3.639c.721.289 1.584.253 1.916-.079.332-.332-.258-.568-1.312-.525-1.165.048-1.402.285-.604.604m-23.563 1.006c.962.252 2.538.252 3.5 0 .962-.251.175-.457-1.75-.457s-2.712.206-1.75.457m18.563-.006c.721.289 1.584.253 1.916-.079.332-.332-.258-.568-1.312-.525-1.165.048-1.402.285-.604.604m23.517 10.567c-5.983 6.671-6.748 10.531-2.81 14.181 3.021 2.799 10.48 5.03 10.48 3.134 0-.672-1.408-3.348-3.129-5.946-2.72-4.106-3.049-5.305-2.519-9.171.335-2.446.472-4.448.303-4.448-.168 0-1.215 1.012-2.325 2.25m156.286 9.039c-.334 3.416-.873 9.361-1.197 13.211-.548 6.516-3.906 28.119-4.896 31.5-.269.917 1.362 2.86 4.198 5 11.9 8.982 35.379 34.695 45.513 49.846 2.373 3.547 5.712 6.725 9.921 9.442 12.457 8.043 24.327 22.323 28.229 33.962 1.428 4.261 1.438 5.205.094 9.163-1.332 3.924-1.331 5.054.012 10.21.83 3.188 1.571 6.94 1.646 8.337.124 2.31.175 2.339.566.32.236-1.221-.278-4.979-1.142-8.351-1.395-5.447-1.406-6.616-.1-10.464 1.294-3.81 1.294-4.929.005-9.272-3.237-10.901-15.867-26.14-28.74-34.679-3.727-2.472-7.429-6.169-10.437-10.422-11.431-16.165-27.733-34.193-41.571-45.974l-7.365-6.269 1.775-9.175c.977-5.046 2.081-12.212 2.454-15.924.372-3.712 1.025-6.75 1.45-6.75 1.941 0 20.69 15.626 32.36 26.97 80.321 78.072 106.66 194.319 67.927 299.794-7.626 20.767-26.879 56.797-34.335 64.253-1.977 1.977-1.954 1.983 8.486 1.983h10.47l3.353-5.25c24.742-38.736 40.27-84.908 44.784-133.161 1.654-17.686.665-51.985-2.008-69.589-8.046-52.999-29.409-101.565-63.07-143.384-16.266-20.208-41.584-43.719-62.136-57.702l-5.637-3.836-.609 6.211m-156.439 46.378c.394 2.032 1.855 2.596 3.701 1.429 1.812-1.147.546-3.096-2.01-3.096-1.343 0-1.907.556-1.691 1.667M865.745 560.75c-.331 6.126-.021 12.671.836 17.609 8.139 46.902 1.325 99.772-18.511 143.641-6.329 13.996-7.159 16.336-3.091 8.715 8.444-15.818 17.188-41.682 21.407-63.322 5.065-25.974 5.868-59.586 1.98-82.893-1.026-6.153-1.592-14.52-1.471-21.75.108-6.462.012-11.75-.213-11.75s-.647 4.388-.937 9.75m-246.456 238.5l-6.153 6.25-.318 36.25-.318 36.251 11.588-.001c6.374 0 21.85.299 34.391.664l22.803.663-.488-20.255-.487-20.255-5.904-5.362-5.903-5.363-11.75-.046L645 828v21h12v8.07l-10.25-.285-10.25-.285-.27-20.75-.271-20.75 14.771.011 14.77.011 7.25 6.572 7.25 6.572v-5.426c0-2.984-.294-10.897-.654-17.583L678.693 793H625.442l-6.153 6.25m72.788 1.173l-6.366 6.422.141 8.828c.078 4.855.433 21.09.789 36.077l.647 27.25h23.671l-.229-15.626-.23-15.625 9.98.189c5.489.103 10.122.33 10.295.503.173.174.587 7.282.919 15.796l.605 15.481 11.588.57c6.373.314 11.738.42 11.922.237.323-.324-2.201-49.667-3.384-66.142l-.582-8.116-6.851-6.134-6.85-6.133h-39.7l-6.365 6.423m62.121-2.7l3.656 3.777 1.079 19.5c2.848 51.498 3.309 59.508 3.433 59.611.074.061 5.462.403 11.974.76l11.839.648-.543-3.759c-.299-2.068-.806-9.16-1.127-15.76-.321-6.6-.844-14.362-1.161-17.25-.39-3.54-.215-5.25.537-5.25.613 0 1.115.373 1.115.829 0 .457 4.561 9.267 10.136 19.578l10.135 18.748 4.861-11.26 4.861-11.261-11.685-21.567c-6.427-11.862-14.004-25.842-16.837-31.067l-5.151-9.5-15.39-.277-15.389-.278 3.657 3.778m60.802-2.8c0 .524-2.649 7.299-5.887 15.054l-5.886 14.101 6.505 12.211c3.578 6.716 6.833 12.57 7.234 13.008.4.439 1.773-1.586 3.051-4.5 2.754-6.281 2.464-7.483 4.496 18.652.854 10.972 1.65 20.023 1.77 20.114.119.09 5.28.419 11.467.731l11.25.567v-3.215c0-1.769-1.576-21.612-3.502-44.096-1.926-22.484-3.358-41.024-3.181-41.2.176-.176 1.694 1.136 3.375 2.915l3.055 3.235 3.146 38.5c1.731 21.175 3.236 39.737 3.345 41.25.109 1.513.438 2.788.73 2.834.293.046 5.626.384 11.852.75l11.319.666-.566-5.5c-.312-3.025-1.94-20.35-3.618-38.5-1.679-18.15-3.368-36.375-3.753-40.5l-.702-7.5-27.75-.266c-17.131-.164-27.75.099-27.75.689m62 1.496c0 2.203 4.222 48.543 7.125 78.201l1.186 12.12 6.595.623c3.627.342 8.735.626 11.353.63l4.758.007-.593-5.25c-1.906-16.866-4.086-40.31-3.78-40.667.484-.566-.549-2.288 14.343 23.917 7.345 12.925 13.471 23.655 13.613 23.845.307.413 22.633 2.263 22.968 1.904.128-.137-.823-9.474-2.113-20.749l-5.4-47.214c-1.68-14.692-3.055-27.179-3.055-27.75 0-.652-4.075-1.036-11-1.036-6.05 0-11 .159-11 .354 0 .969 4.048 38.653 4.5 41.896.288 2.063.181 3.747-.238 3.744-.419-.003-6.837-10.572-14.262-23.487l-13.5-23.48-10.75-.014C877.043 794 877 794.01 877 796.419m79.75 5.091c-3.019 4.084-4.744 7.441-4.733 9.209.021 3.587 8.757 81.418 9.17 81.708.172.121 14.919 1.474 32.771 3.008 17.852 1.533 33.04 3.011 33.75 3.283 1.803.692 1.653-1.82-1.57-26.346l-2.778-21.128-6.723-7.482-6.723-7.483-11.207-.539c-6.164-.297-11.382-.372-11.597-.167-.214.206.18 5.964.877 12.797l1.267 12.424 6.373.683c5.819.623 6.373.885 6.373 3.021 0 1.286.3 3.12.666 4.075.617 1.606-.11 1.683-9.75 1.023-5.729-.392-10.699-1.024-11.045-1.405-.621-.682-5.924-41.814-5.891-45.691.016-1.923.589-1.989 14.893-1.701l14.875.299 7.738 7.951c4.256 4.373 7.898 7.951 8.094 7.951.197 0 .158-.562-.086-1.25-.244-.687-1.354-8.675-2.466-17.75s-2.269-17.962-2.57-19.75l-.549-3.25-27.204.041-27.205.041-4.75 6.428m-248.197 14.405c-.845 1.367.451 8.4 1.698 9.21.529.343 5.189.703 10.355.8l9.394.175V816h-8.918c-4.905 0-9.585-.256-10.399-.568-.814-.313-1.773-.095-2.13.483m-88.331 40.835l.222 15.75.304-15.194.303-15.194 4.225-.381 4.224-.382-4.75-.174L620 841l.222 15.75m31.857-14c.047 1.045.282 1.247.583.5.353-.875 3.312-1.25 9.861-1.25h9.356l.393 3.75.392 3.75.168-4.25L673 841h-10.5c-9.363 0-10.491.189-10.421 1.75m41.921-.844c0 .499.9.671 2 .384 1.1-.288 2-.696 2-.907 0-.21-.9-.383-2-.383s-2 .408-2 .906m44.16 3.844c.158 3.692.166 3.7.563.5.366-2.947.719-3.25 3.788-3.25 3.37 0 3.386.023 3.752 5.25l.367 5.25.185-5.75L747 842h-9l.16 3.75m36.998-.75c0 1.375.227 1.938.504 1.25.278-.687.278-1.812 0-2.5-.277-.687-.504-.125-.504 1.25M794 843.809c0 .445.7 1.682 1.555 2.75 1.494 1.864 1.512 1.852.465-.309-.983-2.028-.841-2.25 1.445-2.25 1.394 0 2.535.364 2.535.809 0 .445.697 1.682 1.548 2.75 1.368 1.714 1.365 1.562-.025-1.309-1.252-2.585-2.183-3.25-4.549-3.25-1.636 0-2.974.364-2.974.809m36 .99c0 .44 1.575.616 3.5.391 1.925-.225 3.5-.585 3.5-.799 0-.215-1.575-.391-3.5-.391s-3.5.36-3.5.799m8.232 2.201c0 1.925.206 2.712.457 1.75.252-.962.252-2.538 0-3.5-.251-.962-.457-.175-.457 1.75m-143.854 9c0 6.325.163 8.913.361 5.75.198-3.163.198-8.337 0-11.5-.198-3.163-.361-.575-.361 5.75m165.872-10.311c.962.252 2.538.252 3.5 0 .962-.251.175-.457-1.75-.457s-2.712.206-1.75.457m6.829.894c.048 1.165.285 1.402.604.605.289-.722.253-1.585-.079-1.917-.332-.332-.568.258-.525 1.312M889 850c0 2.2.178 4 .395 4 .217 0 .567-1.8.776-4 .21-2.2.032-4-.395-4-.427 0-.776 1.8-.776 4m7.252.5c.011 2.2.216 2.982.455 1.738.239-1.244.23-3.044-.02-4s-.446.062-.435 2.262m20.248-.5c.853 1.65 1.776 3 2.051 3 .275 0-.198-1.35-1.051-3s-1.776-3-2.051-3c-.275 0 .198 1.35 1.051 3m-56.228 2c0 2.475.195 3.487.434 2.25.238-1.237.238-3.263 0-4.5-.239-1.237-.434-.225-.434 2.25m65.978-3.272c2.063.216 5.438.216 7.5 0 2.063-.215.375-.392-3.75-.392s-5.812.177-3.75.392M768.32 855c0 3.575.182 5.038.403 3.25.222-1.788.222-4.712 0-6.5-.221-1.788-.403-.325-.403 3.25m173.875-3.5c.02 1.65.244 2.204.498 1.231.254-.973.237-2.323-.037-3-.274-.677-.481.119-.461 1.769m25.302-.76c1.648.242 3.329.962 3.734 1.6.479.753.744.546.754-.59.012-1.385-.768-1.719-3.735-1.6-3.401.136-3.471.191-.753.59M702 861.443v10.442l-4.25.383-4.25.383 4.75.174L703 873v-11c0-6.05-.225-11-.5-11s-.5 4.699-.5 10.443M831.272 855c0 2.475.195 3.487.434 2.25.238-1.237.238-3.263 0-4.5-.239-1.237-.434-.225-.434 2.25m37 0c0 2.475.195 3.487.434 2.25.238-1.237.238-3.263 0-4.5-.239-1.237-.434-.225-.434 2.25m127.438-2c.288 1.1.696 2 .907 2 .21 0 .383-.9.383-2s-.408-2-.906-2c-.499 0-.671.9-.384 2m-190.63 1c1.458 3.061 1.92 3.628 1.92 2.358 0-.537-.7-1.849-1.555-2.917-1.467-1.83-1.487-1.798-.365.559m200.17-1.284c1.513.229 3.987.229 5.5 0s.275-.416-2.75-.416-4.263.187-2.75.416M776.3 858c0 3.025.187 4.263.416 2.75.229-1.513.229-3.987 0-5.5s-.416-.275-.416 2.75m25.299.005c1.498 2.753 2.883 4.846 3.077 4.652.432-.431-4.655-9.657-5.324-9.657-.262 0 .749 2.252 2.247 5.005M964.232 856c0 1.925.206 2.712.457 1.75.252-.962.252-2.538 0-3.5-.251-.962-.457-.175-.457 1.75m-124.96 2c0 2.475.195 3.487.434 2.25.238-1.237.238-3.263 0-4.5-.239-1.237-.434-.225-.434 2.25m81.228-1c.853 1.65 1.776 3 2.051 3 .275 0-.198-1.35-1.051-3s-1.776-3-2.051-3c-.275 0 .198 1.35 1.051 3m80.25-2.294c1.237.238 3.263.238 4.5 0 1.237-.239.225-.434-2.25-.434s-3.487.195-2.25.434m15.445 2.794c.02 1.65.244 2.204.498 1.231.254-.973.237-2.323-.037-3-.274-.677-.481.119-.461 1.769M739.336 863c0 4.125.177 5.813.392 3.75.216-2.062.216-5.437 0-7.5-.215-2.062-.392-.375-.392 3.75m232.896-4c0 1.925.206 2.712.457 1.75.252-.962.252-2.538 0-3.5-.251-.962-.457-.175-.457 1.75m-81.96 2c0 2.475.195 3.487.434 2.25.238-1.237.238-3.263 0-4.5-.239-1.237-.434-.225-.434 2.25m6.98-.5c.011 2.2.216 2.982.455 1.738.239-1.244.23-3.044-.02-4s-.446.062-.435 2.262m45.98-.5c0 1.925.206 2.712.457 1.75.252-.962.252-2.538 0-3.5-.251-.962-.457-.175-.457 1.75m-315.153-.417c.048 1.165.285 1.402.604.605.289-.722.253-1.585-.079-1.917-.332-.332-.568.258-.525 1.312m37.079.417c0 1.375.227 1.938.504 1.25.278-.687.278-1.812 0-2.5-.277-.687-.504-.125-.504 1.25m82.178 7c0 4.125.177 5.813.392 3.75.216-2.062.216-5.437 0-7.5-.215-2.062-.392-.375-.392 3.75m113.936-3c0 2.475.195 3.487.434 2.25.238-1.237.238-3.263 0-4.5-.239-1.237-.434-.225-.434 2.25m63.228 0c.853 1.65 1.776 3 2.051 3 .275 0-.198-1.35-1.051-3s-1.776-3-2.051-3c-.275 0 .198 1.35 1.051 3m84.658-1c0 1.375.227 1.938.504 1.25.278-.687.278-1.812 0-2.5-.277-.687-.504-.125-.504 1.25m-43.963 1.5c.02 1.65.244 2.204.498 1.231.254-.973.237-2.323-.037-3-.274-.677-.481.119-.461 1.769m-132.909 3c.008 2.75.202 3.756.432 2.236.229-1.52.223-3.77-.014-5-.237-1.23-.425.014-.418 2.764m36.966-1c.011 2.2.216 2.982.455 1.738.239-1.244.23-3.044-.02-4s-.446.062-.435 2.262m147.906-1.5c0 1.375.227 1.938.504 1.25.278-.687.278-1.812 0-2.5-.277-.687-.504-.125-.504 1.25m-43.963 2.5c.02 1.65.244 2.204.498 1.231.254-.973.237-2.323-.037-3-.274-.677-.481.119-.461 1.769M673 868.943c0 2.735-.3 2.969-4.25 3.325l-4.25.383 4.75.174L674 873v-3.5c0-1.925-.225-3.5-.5-3.5s-.5 1.324-.5 2.943m271.195-.443c.02 1.65.244 2.204.498 1.231.254-.973.237-2.323-.037-3-.274-.677-.481.119-.461 1.769m-175.027 2.25L769 875l3.75-.16c3.61-.154 3.631-.175.557-.559-2.853-.357-3.235-.792-3.582-4.09l-.389-3.691-.168 4.25m71.084-.25c.011 2.2.216 2.982.455 1.738.239-1.244.23-3.044-.02-4s-.446.062-.435 2.262m51 1c.011 2.2.216 2.982.455 1.738.239-1.244.23-3.044-.02-4s-.446.062-.435 2.262m7 0c.011 2.2.216 2.982.455 1.738.239-1.244.23-3.044-.02-4s-.446.062-.435 2.262m30.248-.5c.853 1.65 1.776 3 2.051 3 .275 0-.198-1.35-1.051-3s-1.776-3-2.051-3c-.275 0 .198 1.35 1.051 3m81.695-.5c.02 1.65.244 2.204.498 1.231.254-.973.237-2.323-.037-3-.274-.677-.481.119-.461 1.769m-233 2c.02 1.65.244 2.204.498 1.231.254-.973.237-2.323-.037-3-.274-.677-.481.119-.461 1.769m241.037.5c0 1.925.206 2.712.457 1.75.252-.962.252-2.538 0-3.5-.251-.962-.457-.175-.457 1.75M862 875c0 2.2.349 4 .776 4 .427 0 .605-1.8.395-4-.209-2.2-.559-4-.776-4-.217 0-.395 1.8-.395 4m104.195-1.5c.02 1.65.244 2.204.498 1.231.254-.973.237-2.323-.037-3-.274-.677-.481.119-.461 1.769m-225.945.189c.962.252 2.538.252 3.5 0 .962-.251.175-.457-1.75-.457s-2.712.206-1.75.457M870.232 877c0 1.925.206 2.712.457 1.75.252-.962.252-2.538 0-3.5-.251-.962-.457-.175-.457 1.75m62.268 1c.853 1.65 1.776 3 2.051 3 .275 0-.198-1.35-1.051-3s-1.776-3-2.051-3c-.275 0 .198 1.35 1.051 3m12.732 0c0 1.925.206 2.712.457 1.75.252-.962.252-2.538 0-3.5-.251-.962-.457-.175-.457 1.75M833 877.201c0 .439 2.138.763 4.75.72 5.228-.087 4.805-.572-1-1.148-2.062-.204-3.75-.012-3.75.428m150.75-.495c1.237.238 3.263.238 4.5 0 1.237-.239.225-.434-2.25-.434s-3.487.195-2.25.434m13 1c1.237.238 3.263.238 4.5 0 1.237-.239.225-.434-2.25-.434s-3.487.195-2.25.434m22.482 3.294c0 1.925.206 2.712.457 1.75.252-.962.252-2.538 0-3.5-.251-.962-.457-.175-.457 1.75M892 880.139c0 .473 1.125.861 2.5.861s2.5-.173 2.5-.383c0-.211-1.125-.599-2.5-.862s-2.5-.09-2.5.384m7.079.444c.048 1.165.285 1.402.604.605.289-.722.253-1.585-.079-1.917-.332-.332-.568.258-.525 1.312M967 882.5c0 1.925.36 3.5.799 3.5.44 0 .616-1.575.391-3.5-.225-1.925-.585-3.5-.799-3.5-.215 0-.391 1.575-.391 3.5m-31.147.753c.504.504 1.981.749 3.282.544 2.001-.315 1.861-.455-.916-.916-1.988-.329-2.921-.183-2.366.372m37.897 3.453c1.237.238 3.263.238 4.5 0 1.237-.239.225-.434-2.25-.434s-3.487.195-2.25.434m46.005 1.794c-.263 1.375-.09 2.5.384 2.5.473 0 .861-1.125.861-2.5s-.173-2.5-.383-2.5c-.211 0-.599 1.125-.862 2.5m-32.993-.793c1.244.239 3.044.23 4-.02s-.062-.446-2.262-.435c-2.2.011-2.982.216-1.738.455m11.488.982c.962.252 2.538.252 3.5 0 .962-.251.175-.457-1.75-.457s-2.712.206-1.75.457m11.512 1.018c1.244.239 3.044.23 4-.02s-.062-.446-2.262-.435c-2.2.011-2.982.216-1.738.455M585 906.479c-14.025 1.779-26.4 3.421-27.5 3.649-2.921.605 22.863 4.663 38 5.98 15.574 1.355 46.397.577 62.021-1.565 11.114-1.523 25.075-4.257 22.692-4.443-.708-.055-14.111-1.675-29.783-3.6-15.673-1.925-31.069-3.445-34.213-3.377-3.144.067-17.192 1.578-31.217 3.356" fill="undefined" fill-rule="evenodd"/></svg>